<?xml version="1.0" encoding="utf-8"?>
<svg version="1.1" xmlns="http://www.w3.org/2000/svg" width="88" height="88">
  <path d="M 82.997 12.416 C 92.602 21.422 98.462 33.444 99.574 46.612 C 100.086 60.134 96.78 72.823 88.014 83.238 C 77.254 94.76 64.948 100.297 49.389 100.793 C 35.157 100.55 23.738 95.605 13.542 85.54 C 4.277 75.264 0.271 64.041 -0.375 50.055 C 1.04 35.022 5.804 22.431 16.881 11.948 C 36.632 -3.117 63.453 -2.886 82.997 12.416 Z M 18.335 25.163 C 11.101 35.475 8.892 45.526 10.198 58.119 C 12.627 69.216 18.375 78.219 27.537 84.808 C 37.148 90.705 46.323 92.627 57.564 91.231 C 70.557 87.639 78.832 80.637 85.503 68.997 C 90.167 59.27 90.885 48.722 88.115 38.254 C 83.331 25.886 75.961 18.162 64.156 12.403 C 47.567 5.891 29.569 11.549 18.335 25.163 Z" fill="#CACACA"/>
  <path d="M 53.989 23.815 C 56.989 23.94 56.989 23.94 57.989 24.94 C 58.148 27.229 58.241 29.524 58.306 31.818 C 58.327 32.505 58.347 33.192 58.369 33.899 C 58.434 36.1 58.493 38.301 58.552 40.502 C 58.595 41.991 58.639 43.48 58.683 44.969 C 58.79 48.626 58.891 52.282 58.989 55.94 C 59.43 55.439 59.871 54.939 60.325 54.424 C 60.874 53.934 61.424 53.444 61.989 52.94 C 66.41 53.361 66.41 53.361 67.989 54.94 C 68.372 57.139 68.372 57.139 67.989 59.94 C 66.334 62.123 64.806 63.868 62.864 65.752 C 62.153 66.505 62.153 66.505 61.427 67.274 C 58.84 69.843 57.344 70.898 53.685 71.326 C 50.989 70.94 50.989 70.94 49.989 69.94 C 49.891 68.533 49.861 67.121 49.86 65.711 C 49.857 64.813 49.854 63.916 49.85 62.991 C 49.852 62.015 49.854 61.039 49.857 60.033 C 49.856 59.038 49.855 58.043 49.854 57.018 C 49.853 54.91 49.855 52.801 49.859 50.693 C 49.864 47.453 49.859 44.214 49.853 40.975 C 49.853 38.932 49.855 36.889 49.857 34.846 C 49.855 33.87 49.852 32.894 49.85 31.888 C 49.854 30.99 49.857 30.093 49.86 29.168 C 49.861 28.374 49.862 27.58 49.862 26.761 C 50.081 23.623 50.796 23.948 53.989 23.815 Z" fill="#D1D1D1"/>
  <path d="M 44.045 23.52 C 45.604 25.079 45.172 26.581 45.174 28.748 C 45.178 29.646 45.181 30.544 45.184 31.469 C 45.182 32.445 45.18 33.421 45.178 34.426 C 45.179 35.919 45.179 35.919 45.181 37.441 C 45.181 39.55 45.18 41.658 45.175 43.766 C 45.17 47.006 45.175 50.245 45.182 53.485 C 45.181 55.528 45.18 57.571 45.178 59.614 C 45.18 60.59 45.182 61.566 45.184 62.571 C 45.181 63.469 45.178 64.367 45.174 65.291 C 45.174 66.086 45.173 66.88 45.172 67.698 C 45.045 69.52 45.045 69.52 44.045 70.52 C 41.045 70.645 41.045 70.645 38.045 70.52 C 36.133 68.608 36.801 65.183 36.729 62.641 C 36.708 61.954 36.687 61.268 36.666 60.56 C 36.6 58.359 36.541 56.158 36.482 53.957 C 36.439 52.468 36.396 50.98 36.352 49.491 C 36.244 45.834 36.143 42.177 36.045 38.52 C 35.385 39.18 34.725 39.84 34.045 40.52 C 30.982 40.707 30.982 40.707 28.045 40.52 C 27.045 39.52 27.045 39.52 26.662 37.321 C 27.203 33.363 29.418 31.377 32.17 28.707 C 32.644 28.205 33.119 27.703 33.607 27.186 C 37.032 23.784 39.258 22.833 44.045 23.52 Z" fill="#BFBFBF"/>
</svg>