<svg id="svg" xmlns="http://www.w3.org/2000/svg" xmlns:xlink="http://www.w3.org/1999/xlink" width="400" height="400" viewBox="0, 0, 400,400" version="1.1"><g id="svgg"><path id="path0" d="M190.504 0.629 C 187.371 0.913,182.781 1.518,180.304 1.972 C 177.145 2.551,172.694 2.916,165.400 3.195 C 153.735 3.640,151.088 4.086,147.648 6.190 C 145.810 7.314,144.546 7.706,140.713 8.341 C 136.922 8.968,135.522 9.399,133.386 10.593 C 131.448 11.677,129.830 12.218,127.303 12.627 C 122.915 13.337,121.408 13.837,119.287 15.286 C 118.345 15.929,116.305 16.980,114.752 17.620 C 113.199 18.260,111.090 19.393,110.065 20.137 C 109.039 20.882,107.252 21.801,106.094 22.180 C 104.936 22.558,103.136 23.484,102.094 24.237 C 100.162 25.633,99.765 25.845,96.109 27.437 C 94.960 27.937,93.340 28.879,92.509 29.529 C 91.679 30.179,90.083 31.006,88.962 31.367 C 86.300 32.224,81.895 35.180,77.587 39.000 C 76.347 40.100,74.016 42.080,72.408 43.400 C 70.799 44.720,68.642 46.520,67.612 47.400 C 66.583 48.280,63.594 50.825,60.971 53.055 C 55.219 57.943,51.983 61.309,48.000 66.545 C 46.350 68.714,44.313 71.304,43.472 72.300 C 42.632 73.297,41.647 74.582,41.284 75.156 C 40.921 75.730,38.789 78.204,36.546 80.653 C 34.304 83.103,32.161 85.713,31.785 86.453 C 31.409 87.194,30.473 88.684,29.705 89.764 C 28.937 90.845,27.795 92.875,27.166 94.275 C 26.538 95.675,25.501 97.582,24.861 98.512 C 24.221 99.441,23.145 101.422,22.469 102.912 C 21.793 104.402,20.693 106.286,20.024 107.097 C 19.355 107.909,18.432 109.701,17.973 111.080 C 17.513 112.463,16.452 114.418,15.605 115.443 C 14.761 116.464,13.764 118.133,13.390 119.150 C 13.016 120.168,12.017 122.170,11.171 123.600 C 9.581 126.287,8.662 129.501,8.198 134.000 C 7.989 136.022,7.576 137.193,6.338 139.268 C 5.147 141.266,4.600 142.771,4.159 145.268 C 3.176 150.842,2.881 151.817,1.515 154.014 L 0.200 156.129 0.095 201.021 L -0.010 245.913 1.554 248.864 C 2.693 251.014,3.245 252.682,3.587 255.008 C 4.303 259.872,5.008 262.230,6.388 264.382 C 7.265 265.748,7.768 267.173,8.044 269.072 C 8.263 270.572,8.610 272.767,8.817 273.948 C 9.237 276.348,14.284 286.977,16.063 289.208 C 16.681 289.982,17.484 291.512,17.848 292.608 C 18.212 293.704,19.209 295.639,20.064 296.908 C 20.918 298.178,22.001 300.248,22.469 301.508 C 22.938 302.769,23.981 304.790,24.788 306.000 C 25.596 307.210,26.666 309.227,27.167 310.481 C 28.185 313.032,32.331 319.134,35.150 322.233 C 36.168 323.351,38.080 325.571,39.400 327.166 C 46.960 336.302,50.525 340.485,53.800 344.059 C 56.710 347.234,58.694 348.971,65.613 354.400 C 68.980 357.042,71.564 359.166,73.627 360.987 C 80.021 366.630,86.591 371.353,90.532 373.140 C 91.983 373.798,93.785 374.805,94.537 375.379 C 95.289 375.953,97.017 376.858,98.376 377.391 C 99.735 377.923,101.692 378.963,102.724 379.700 C 103.756 380.438,105.814 381.607,107.298 382.299 C 108.782 382.990,110.590 384.010,111.317 384.564 C 112.044 385.118,114.055 386.218,115.786 387.006 C 117.517 387.795,119.432 388.795,120.040 389.229 C 121.616 390.351,123.924 391.093,128.083 391.814 C 130.407 392.218,132.658 392.923,134.365 393.783 C 137.538 395.380,139.127 395.831,143.491 396.369 C 146.078 396.688,147.432 397.120,149.825 398.388 L 152.868 400.000 198.873 400.000 L 244.878 400.000 248.139 398.410 C 250.367 397.324,252.351 396.686,254.400 396.398 C 258.459 395.827,260.154 395.336,262.966 393.916 C 264.392 393.196,267.259 392.318,270.088 391.734 C 275.030 390.713,282.611 387.342,288.562 383.518 C 289.861 382.683,291.136 382.000,291.396 382.000 C 291.655 382.000,292.932 381.253,294.234 380.340 C 295.535 379.427,297.769 378.155,299.198 377.513 C 300.627 376.871,302.385 375.896,303.106 375.346 C 303.826 374.797,305.785 373.723,307.458 372.961 C 310.380 371.629,314.118 369.169,317.161 366.573 C 317.953 365.898,320.724 363.770,323.320 361.843 C 325.916 359.917,328.902 357.589,329.955 356.670 C 331.009 355.752,333.363 353.740,335.188 352.200 C 345.166 343.779,347.898 340.875,363.724 321.871 C 367.062 317.862,370.537 312.677,371.908 309.659 C 372.473 308.416,373.393 306.680,373.954 305.800 C 375.059 304.067,382.591 289.989,386.613 282.140 C 388.589 278.284,389.328 276.300,390.193 272.540 C 390.792 269.933,391.804 266.479,392.443 264.865 C 393.081 263.251,394.066 260.105,394.632 257.875 C 395.197 255.644,396.179 252.465,396.814 250.810 C 399.950 242.637,400.092 240.152,399.893 197.120 C 399.714 158.550,399.820 160.195,397.080 153.556 C 396.318 151.710,395.212 148.042,394.623 145.405 C 394.033 142.768,393.009 139.258,392.347 137.605 C 391.685 135.952,390.615 132.659,389.970 130.286 C 388.579 125.173,385.529 118.914,379.012 107.800 C 378.109 106.260,377.139 104.470,376.858 103.822 C 376.576 103.174,375.216 100.744,373.836 98.422 C 372.455 96.100,370.560 92.830,369.624 91.157 C 368.688 89.483,366.365 86.173,364.461 83.802 C 362.557 81.430,359.470 77.558,357.600 75.196 C 355.730 72.834,353.480 70.102,352.600 69.124 C 351.720 68.146,349.978 66.099,348.729 64.573 C 347.480 63.048,344.776 60.180,342.720 58.200 C 339.270 54.878,337.073 52.939,327.626 44.876 C 325.742 43.268,323.210 41.097,322.000 40.051 C 320.790 39.005,318.630 37.370,317.200 36.417 C 315.770 35.465,314.230 34.353,313.777 33.946 C 312.983 33.231,308.942 31.061,301.402 27.298 C 299.422 26.311,297.082 25.013,296.202 24.413 C 295.321 23.814,293.721 22.992,292.646 22.587 C 291.571 22.182,289.591 21.135,288.246 20.262 C 286.901 19.389,284.810 18.275,283.600 17.788 C 282.390 17.302,280.324 16.246,279.008 15.442 C 276.382 13.838,275.286 13.477,270.552 12.650 C 268.602 12.310,266.276 11.545,264.555 10.678 C 262.035 9.409,256.929 8.000,254.850 8.000 C 254.419 8.000,252.850 7.355,251.363 6.566 C 246.744 4.115,243.920 3.619,232.000 3.162 C 224.001 2.856,220.517 2.558,217.800 1.948 C 214.614 1.233,200.589 -0.062,197.400 0.065 C 196.740 0.091,193.637 0.345,190.504 0.629 M214.600 46.551 L 227.400 47.052 229.900 48.332 C 232.521 49.673,235.771 50.546,239.800 50.991 C 241.344 51.161,243.555 51.877,246.000 52.997 C 248.650 54.211,250.943 54.929,253.578 55.370 C 255.656 55.718,257.996 56.365,258.778 56.809 C 259.560 57.252,261.550 58.266,263.200 59.062 C 264.850 59.858,266.921 61.002,267.801 61.606 C 268.682 62.209,270.605 63.248,272.076 63.915 C 273.547 64.582,275.526 65.655,276.475 66.300 C 277.424 66.945,279.213 67.931,280.451 68.492 C 281.689 69.052,284.764 71.196,287.284 73.255 C 289.804 75.315,292.723 77.630,293.772 78.400 C 304.878 86.554,313.339 94.407,318.983 101.800 C 321.645 105.287,324.639 109.063,327.586 112.651 C 330.315 115.973,332.833 120.165,335.803 126.327 C 336.791 128.377,338.106 130.807,338.726 131.727 C 339.346 132.647,340.186 134.300,340.594 135.400 C 341.001 136.500,341.934 138.306,342.666 139.413 C 343.614 140.846,344.231 142.516,344.809 145.213 C 345.286 147.438,346.268 150.320,347.190 152.200 C 348.414 154.693,348.897 156.327,349.379 159.600 C 349.873 162.952,350.332 164.475,351.656 167.144 L 353.313 170.489 353.638 179.344 C 354.003 189.305,354.215 192.078,355.045 197.779 C 355.554 201.273,355.552 202.271,355.029 205.979 C 354.182 211.982,354.005 214.287,353.626 224.217 L 353.289 233.034 351.636 236.217 C 350.251 238.882,349.881 240.116,349.362 243.800 C 349.020 246.220,348.394 248.875,347.971 249.700 C 347.547 250.525,346.845 251.875,346.410 252.700 C 345.976 253.525,345.270 255.947,344.842 258.082 C 344.286 260.852,343.724 262.458,342.880 263.683 C 342.230 264.629,341.150 266.610,340.481 268.086 C 339.812 269.562,338.795 271.385,338.221 272.137 C 337.647 272.889,336.753 274.590,336.233 275.917 C 335.713 277.243,334.715 279.160,334.017 280.176 C 333.318 281.192,332.315 282.998,331.787 284.190 C 331.260 285.383,329.337 288.199,327.514 290.450 C 323.194 295.783,320.123 299.807,318.836 301.820 C 316.030 306.209,301.383 321.118,298.029 323.000 C 297.637 323.220,296.255 324.246,294.958 325.281 C 293.661 326.315,291.160 328.281,289.400 329.649 C 287.640 331.017,285.366 332.819,284.347 333.653 C 283.328 334.486,281.448 335.631,280.171 336.196 C 278.893 336.761,276.937 337.821,275.824 338.552 C 274.711 339.283,272.900 340.213,271.800 340.620 C 270.700 341.026,268.900 341.948,267.800 342.668 C 266.700 343.388,264.676 344.433,263.302 344.991 C 261.928 345.548,259.920 346.549,258.839 347.214 C 257.447 348.071,255.665 348.654,252.736 349.212 C 249.893 349.754,247.600 350.493,245.400 351.578 C 243.640 352.446,241.300 353.268,240.200 353.405 C 235.842 353.946,233.674 354.551,230.800 356.029 L 227.800 357.571 211.800 357.996 C 199.303 358.328,192.998 358.305,183.000 357.889 L 170.200 357.357 167.200 355.927 C 164.464 354.622,162.272 354.065,157.200 353.384 C 156.210 353.252,153.960 352.439,152.200 351.578 C 150.146 350.574,147.578 349.729,145.030 349.220 C 142.179 348.651,140.432 348.045,138.830 347.070 C 137.604 346.323,135.712 345.417,134.627 345.056 C 133.542 344.694,131.554 343.682,130.210 342.806 C 128.865 341.930,126.710 340.851,125.421 340.407 C 124.131 339.963,122.472 339.140,121.733 338.576 C 120.994 338.013,119.115 336.922,117.557 336.152 C 115.999 335.382,113.096 333.367,111.106 331.676 C 109.115 329.984,106.710 327.970,105.760 327.200 C 104.810 326.430,102.741 324.720,101.163 323.400 C 99.585 322.080,96.923 319.957,95.247 318.682 C 89.827 314.558,89.219 313.875,76.600 297.757 C 75.500 296.352,73.415 293.717,71.967 291.901 C 66.296 284.791,55.237 263.648,53.403 256.410 C 52.841 254.193,51.929 251.357,51.376 250.107 C 50.823 248.857,49.848 245.667,49.209 243.017 C 48.571 240.368,47.604 237.120,47.062 235.800 C 45.618 232.284,45.259 229.727,44.797 219.661 C 44.569 214.678,44.200 208.761,43.978 206.512 C 43.708 203.772,43.708 201.003,43.977 198.112 C 44.197 195.741,44.575 189.480,44.816 184.200 C 45.294 173.701,45.466 172.527,47.219 167.800 C 47.872 166.040,48.842 162.602,49.376 160.159 C 49.910 157.717,50.975 154.111,51.743 152.147 C 52.510 150.183,53.526 147.057,54.000 145.202 C 54.625 142.752,56.379 138.793,60.402 130.753 C 67.486 116.595,67.844 116.026,75.218 107.206 C 78.618 103.139,82.792 98.040,84.493 95.873 C 88.317 91.004,89.918 89.569,101.200 80.908 C 102.410 79.979,104.660 78.138,106.200 76.818 C 107.740 75.498,109.810 73.843,110.800 73.140 C 111.790 72.437,113.193 71.352,113.917 70.728 C 114.642 70.104,116.352 69.030,117.717 68.341 C 119.083 67.652,120.760 66.660,121.445 66.138 C 122.130 65.616,123.831 64.725,125.225 64.159 C 126.619 63.592,128.489 62.634,129.380 62.029 C 133.269 59.389,140.945 56.029,144.980 55.202 C 147.641 54.656,149.812 53.917,151.526 52.975 C 153.529 51.874,154.978 51.433,158.145 50.962 C 163.594 50.151,163.733 50.114,167.400 48.479 L 170.600 47.052 178.600 46.732 C 197.815 45.963,199.366 45.955,214.600 46.551 M167.400 89.976 C 160.636 90.851,159.355 91.884,132.969 117.723 C 104.563 145.541,104.154 146.059,103.705 154.752 C 103.288 162.835,104.536 166.367,109.762 171.895 C 115.154 177.597,117.946 178.588,127.800 178.293 C 136.232 178.042,139.288 176.635,146.499 169.684 C 147.461 168.757,148.137 168.377,148.384 168.624 C 148.627 168.867,148.820 192.595,148.904 232.805 C 149.049 301.152,148.964 298.295,150.966 302.484 C 152.817 306.356,159.473 312.662,162.697 313.597 C 177.495 317.889,191.620 310.764,194.878 297.364 C 195.523 294.710,195.847 116.789,195.219 110.170 C 194.463 102.209,193.145 99.607,187.564 95.058 C 181.817 90.373,175.888 88.879,167.400 89.976 M221.400 89.839 C 212.554 90.723,205.617 96.046,203.963 103.220 C 203.305 106.071,202.933 284.499,203.568 292.600 C 204.647 306.384,212.814 314.527,225.600 314.566 C 234.372 314.593,238.621 312.411,248.213 302.956 C 250.420 300.780,259.303 292.070,267.953 283.600 C 293.922 258.173,295.995 255.126,295.009 243.826 C 294.448 237.398,289.692 230.195,284.369 227.713 C 272.173 222.027,270.428 221.893,261.932 225.992 C 258.543 227.627,257.175 228.577,254.420 231.204 C 252.568 232.972,250.861 234.354,250.626 234.276 C 250.328 234.176,250.127 214.993,249.958 170.567 C 249.672 95.671,250.174 101.883,243.946 96.246 C 237.730 90.621,231.445 88.835,221.400 89.839 " stroke="none" fill="#8a8a8a" fill-rule="evenodd"></path><path id="path1" d="" stroke="none" fill="#fc04fc" fill-rule="evenodd"></path></g></svg>